<svg width="48" height="48" viewBox="0 0 48 48" fill="none" xmlns="http://www.w3.org/2000/svg">
<path fill-rule="evenodd" clip-rule="evenodd" d="M4 24C4 12.954 12.954 4 24 4C35.046 4 44 12.954 44 24C44 35.046 35.046 44 24 44C12.954 44 4 35.046 4 24ZM26 26C26 27.104 25.104 28 24 28C22.896 28 22 27.104 22 26V16C22 14.896 22.896 14 24 14C25.104 14 26 14.896 26 16V26ZM24 34C22.896 34 22 33.104 22 32C22 30.896 22.896 30 24 30C25.104 30 26 30.896 26 32C26 33.104 25.104 34 24 34Z" fill="#0C93A4"/>
<mask id="mask0" mask-type="alpha" maskUnits="userSpaceOnUse" x="4" y="4" width="40" height="40">
<path fill-rule="evenodd" clip-rule="evenodd" d="M4 24C4 12.954 12.954 4 24 4C35.046 4 44 12.954 44 24C44 35.046 35.046 44 24 44C12.954 44 4 35.046 4 24ZM26 26C26 27.104 25.104 28 24 28C22.896 28 22 27.104 22 26V16C22 14.896 22.896 14 24 14C25.104 14 26 14.896 26 16V26ZM24 34C22.896 34 22 33.104 22 32C22 30.896 22.896 30 24 30C25.104 30 26 30.896 26 32C26 33.104 25.104 34 24 34Z" fill="white"/>
</mask>
<g mask="url(#mask0)">
</g>
</svg>
