<svg width="17" height="104" viewBox="0 0 17 104" fill="none" xmlns="http://www.w3.org/2000/svg">
<path d="M13.8359 74.1016H2.09375L1.17969 0.625H14.8203L13.8359 74.1016ZM0.6875 96.4609C0.6875 94.3516 1.32031 92.5938 2.58594 91.1875C3.89844 89.7344 5.82031 89.0078 8.35156 89.0078C10.8828 89.0078 12.8047 89.7344 14.1172 91.1875C15.4297 92.5938 16.0859 94.3516 16.0859 96.4609C16.0859 98.5703 15.4297 100.328 14.1172 101.734C12.8047 103.094 10.8828 103.773 8.35156 103.773C5.82031 103.773 3.89844 103.094 2.58594 101.734C1.32031 100.328 0.6875 98.5703 0.6875 96.4609Z" fill="#FF0000" fill-opacity="0.2"/>
</svg>
